<?xml version="1.0" encoding="utf-8"?><!DOCTYPE svg  PUBLIC '-//W3C//DTD SVG 1.1//EN'  'http://www.w3.org/Graphics/SVG/1.1/DTD/svg11.dtd'><svg viewBox="0 0 870 870" xmlns="http://www.w3.org/2000/svg" xmlns:xlink="http://www.w3.org/1999/xlink"><style>:root>svg{display:none}:root>svg:target{display:block}</style><svg viewBox="0 0 512 489.58" id="checked" xmlns="http://www.w3.org/2000/svg"><style>.ast0{fill:#fff}</style><path class="ast0" d="M244.79 489.58h-.14c-65.39-.03-126.85-25.53-173.06-71.79C25.38 371.52-.03 310.04 0 244.65.03 179.26 25.53 117.8 71.79 71.59 118.02 25.42 179.46 0 244.79 0h.14c34.5.01 67.98 7.14 99.49 21.19 10.44 4.65 15.12 16.87 10.48 27.31-4.65 10.43-16.88 15.12-27.31 10.47-26.19-11.67-54.01-17.6-82.68-17.61h-.12c-54.3 0-105.35 21.13-143.76 59.5-38.45 38.4-59.64 89.48-59.67 143.81-.06 112.17 91.14 203.48 203.31 203.55h.12c54.3 0 105.35-21.13 143.76-59.5 38.45-38.4 59.64-89.47 59.67-143.81v-20.83c0-11.43 9.26-20.69 20.68-20.69s20.68 9.26 20.68 20.69v20.84c-.03 65.4-25.53 126.85-71.79 173.06-46.23 46.18-107.67 71.6-173 71.6"/><path class="ast0" d="M244.79 310.42c-5.29 0-10.59-2.02-14.63-6.06l-67.23-67.23c-8.08-8.08-8.08-21.17 0-29.25 8.08-8.08 21.17-8.08 29.25 0l52.61 52.61 231.9-231.9c8.07-8.07 21.17-8.07 29.25 0 8.07 8.08 8.07 21.17 0 29.25L259.41 304.36a20.594 20.594 0 01-14.62 6.06"/></svg><svg viewBox="0 0 512 489.58" id="checked-h" xmlns="http://www.w3.org/2000/svg"><style>.bst0{fill:#000}</style><path class="bst0" d="M244.79 489.58h-.14c-65.39-.03-126.85-25.53-173.06-71.79C25.38 371.52-.03 310.04 0 244.65.03 179.26 25.53 117.8 71.79 71.59 118.02 25.42 179.46 0 244.79 0h.14c34.5.01 67.98 7.14 99.49 21.19 10.44 4.65 15.12 16.87 10.48 27.31-4.65 10.43-16.88 15.12-27.31 10.47-26.19-11.67-54.01-17.6-82.68-17.61h-.12c-54.3 0-105.35 21.13-143.76 59.5-38.45 38.4-59.64 89.48-59.67 143.81-.06 112.17 91.14 203.48 203.31 203.55h.12c54.3 0 105.35-21.13 143.76-59.5 38.45-38.4 59.64-89.47 59.67-143.81v-20.83c0-11.43 9.26-20.69 20.68-20.69s20.68 9.26 20.68 20.69v20.84c-.03 65.4-25.53 126.85-71.79 173.06-46.23 46.18-107.67 71.6-173 71.6"/><path class="bst0" d="M244.79 310.42c-5.29 0-10.59-2.02-14.63-6.06l-67.23-67.23c-8.08-8.08-8.08-21.17 0-29.25 8.08-8.08 21.17-8.08 29.25 0l52.61 52.61 231.9-231.9c8.07-8.07 21.17-8.07 29.25 0 8.07 8.08 8.07 21.17 0 29.25L259.41 304.36a20.594 20.594 0 01-14.62 6.06"/></svg><svg viewBox="0 0 512 311.11" id="email" xmlns="http://www.w3.org/2000/svg"><style>.cst0{fill:#fff}</style><path class="cst0" d="M55.04 26.81l401.57-.55-200.6 139.44zm285.8 165.21l118.97 92.27-407.97.56 119.7-92.83c5.72-4.44 6.76-12.67 2.32-18.4-4.44-5.72-12.67-6.76-18.4-2.32l-128.9 99.97-.32-232.48 222.34 153.66c2.24 1.55 4.85 2.32 7.46 2.32 2.61 0 5.23-.78 7.48-2.34L485.43 38.16l.34 233.07-128.86-99.93c-5.72-4.44-13.96-3.4-18.4 2.32-4.43 5.73-3.39 13.96 2.33 18.4m170.8-165.84C511.62 11.74 499.86 0 485.41 0h-.03L26.19.63C19.18.64 12.6 3.37 7.65 8.33 2.7 13.29 0 19.88 0 26.89l.35 258.03c.01 7 2.75 13.58 7.71 18.53 4.95 4.94 11.52 7.66 18.52 7.66h.03l459.2-.63c14.45-.02 26.2-11.8 26.19-26.27z"/></svg><svg viewBox="0 0 512 311.11" id="email-act" xmlns="http://www.w3.org/2000/svg"><style>.dst0{fill:#00b5ab}</style><path class="dst0" d="M55.04 26.81l401.57-.55-200.6 139.44zm285.8 165.21l118.97 92.27-407.97.56 119.7-92.83c5.72-4.44 6.76-12.67 2.32-18.4-4.44-5.72-12.67-6.76-18.4-2.32l-128.9 99.97-.32-232.48 222.34 153.66c2.24 1.55 4.85 2.32 7.46 2.32 2.61 0 5.23-.78 7.48-2.34L485.43 38.16l.34 233.07-128.86-99.93c-5.72-4.44-13.96-3.4-18.4 2.32-4.43 5.73-3.39 13.96 2.33 18.4m170.8-165.84C511.62 11.74 499.86 0 485.41 0h-.03L26.19.63C19.18.64 12.6 3.37 7.65 8.33 2.7 13.29 0 19.88 0 26.89l.35 258.03c.01 7 2.75 13.58 7.71 18.53 4.95 4.94 11.52 7.66 18.52 7.66h.03l459.2-.63c14.45-.02 26.2-11.8 26.19-26.27z"/></svg><svg viewBox="0 0 640 512" id="eye" xmlns="http://www.w3.org/2000/svg"><path fill="#cacaca" d="M634 471L36 3.51A16 16 0 0013.51 6l-10 12.49A16 16 0 006 41l598 467.49a16 16 0 0022.49-2.49l10-12.49A16 16 0 00634 471zM296.79 146.47l134.79 105.38C429.36 191.91 380.48 144 320 144a112.26 112.26 0 00-23.21 2.47zm46.42 219.07L208.42 260.16C210.65 320.09 259.53 368 320 368a113 113 0 0023.21-2.46zM320 112c98.65 0 189.09 55 237.93 144a285.53 285.53 0 01-44 60.2l37.74 29.5a333.7 333.7 0 0052.9-75.11 32.35 32.35 0 000-29.19C550.29 135.59 442.93 64 320 64c-36.7 0-71.71 7-104.63 18.81l46.41 36.29c18.94-4.3 38.34-7.1 58.22-7.1zm0 288c-98.65 0-189.08-55-237.93-144a285.47 285.47 0 0144.05-60.19l-37.74-29.5a333.6 333.6 0 00-52.89 75.1 32.35 32.35 0 000 29.19C89.72 376.41 197.08 448 320 448c36.7 0 71.71-7.05 104.63-18.81l-46.41-36.28C359.28 397.2 339.89 400 320 400z"/></svg><svg viewBox="0 0 576 512" id="eye-act" xmlns="http://www.w3.org/2000/svg"><path fill="#00b5ab" d="M288 144a110.94 110.94 0 00-31.24 5 55.4 55.4 0 017.24 27 56 56 0 01-56 56 55.4 55.4 0 01-27-7.24A111.71 111.71 0 10288 144zm284.52 97.4C518.29 135.59 410.93 64 288 64S57.68 135.64 3.48 241.41a32.35 32.35 0 000 29.19C57.71 376.41 165.07 448 288 448s230.32-71.64 284.52-177.41a32.35 32.35 0 000-29.19zM288 400c-98.65 0-189.09-55-237.93-144C98.91 167 189.34 112 288 112s189.09 55 237.93 144C477.1 345 386.66 400 288 400z"/></svg><svg viewBox="0 0 550 550" id="facebook" xmlns="http://www.w3.org/2000/svg"><circle cx="275" cy="275" fill="#3F65A6" r="275"/><path d="M236.1 190.8v40.4h-29.6v49.4h29.6V416h60.8V280.5h40.8s3.8-23.7 5.7-49.6h-46.2v-33.8c0-5 6.6-11.8 13.2-11.8h33.1v-51.4h-45c-63.9.1-62.4 49.5-62.4 56.9z" fill="#FFF"/></svg><svg viewBox="0 0 512 467.18" id="login" xmlns="http://www.w3.org/2000/svg"><style>.hst0{fill:#fff}</style><path class="hst0" d="M278.02 272.21c0 12.21 13.79 19.2 23.65 12.26l54.78-38.62c8.46-5.97 8.45-18.55 0-24.52l-54.78-38.62c-9.93-7-23.65.13-23.65 12.26v23.62H15c-8.29 0-15 6.71-15 15 0 8.28 6.71 15 15 15h263.02z"/><path class="hst0" d="M278.4 0C192.25 0 116.58 46.75 76.07 116.78c-4.15 7.17-1.7 16.35 5.47 20.49 7.17 4.15 16.35 1.7 20.5-5.47C137.27 70.89 203.13 30 278.4 30 390.66 30 482 121.33 482 233.59s-91.34 203.59-203.6 203.59c-75.32 0-141.15-40.93-176.36-101.8-4.15-7.18-13.33-9.62-20.5-5.48-7.17 4.15-9.62 13.33-5.47 20.5 40.52 70.04 116.2 116.78 202.33 116.78 129.11 0 233.6-104.47 233.6-233.59C512 104.48 407.52 0 278.4 0"/></svg><svg viewBox="0 0 512 467.18" id="login-h" xmlns="http://www.w3.org/2000/svg"><style>.ist0{fill:#000}</style><path class="ist0" d="M278.02 272.21c0 12.21 13.79 19.2 23.65 12.26l54.78-38.62c8.46-5.97 8.45-18.55 0-24.52l-54.78-38.62c-9.93-7-23.65.13-23.65 12.26v23.62H15c-8.29 0-15 6.71-15 15 0 8.28 6.71 15 15 15h263.02z"/><path class="ist0" d="M278.4 0C192.25 0 116.58 46.75 76.07 116.78c-4.15 7.17-1.7 16.35 5.47 20.49 7.17 4.15 16.35 1.7 20.5-5.47C137.27 70.89 203.13 30 278.4 30 390.66 30 482 121.33 482 233.59s-91.34 203.59-203.6 203.59c-75.32 0-141.15-40.93-176.36-101.8-4.15-7.18-13.33-9.62-20.5-5.48-7.17 4.15-9.62 13.33-5.47 20.5 40.52 70.04 116.2 116.78 202.33 116.78 129.11 0 233.6-104.47 233.6-233.59C512 104.48 407.52 0 278.4 0"/></svg><svg viewBox="0 0 448 512" id="pass" xmlns="http://www.w3.org/2000/svg"><style>.jpath{fill:#cacaca}</style><path class="jpath" d="M400 224h-24v-72C376 68.2 307.8 0 224 0S72 68.2 72 152v72H48c-26.5 0-48 21.5-48 48v192c0 26.5 21.5 48 48 48h352c26.5 0 48-21.5 48-48V272c0-26.5-21.5-48-48-48zm-104 0H152v-72c0-39.7 32.3-72 72-72s72 32.3 72 72v72z"/></svg><svg viewBox="0 0 448 512" id="pass-act" xmlns="http://www.w3.org/2000/svg"><style>.kpath{fill:#00b5ab}</style><path class="kpath" d="M400 224h-24v-72C376 68.2 307.8 0 224 0S72 68.2 72 152v72H48c-26.5 0-48 21.5-48 48v192c0 26.5 21.5 48 48 48h352c26.5 0 48-21.5 48-48V272c0-26.5-21.5-48-48-48zm-104 0H152v-72c0-39.7 32.3-72 72-72s72 32.3 72 72v72z"/></svg><svg viewBox="0 0 512 512" id="tel" xmlns="http://www.w3.org/2000/svg"><style>.lpath{fill:#cacaca}</style><path class="lpath" d="M497.39 361.8l-112-48a24 24 0 00-28 6.9l-49.6 60.6A370.66 370.66 0 01130.6 204.11l60.6-49.6a23.94 23.94 0 006.9-28l-48-112A24.16 24.16 0 00122.6.61l-104 24A24 24 0 000 48c0 256.5 207.9 464 464 464a24 24 0 0023.4-18.6l24-104a24.29 24.29 0 00-14.01-27.6z"/></svg><svg viewBox="0 0 512 512" id="tel-act" xmlns="http://www.w3.org/2000/svg"><style>.mpath{fill:#00b5ab}</style><path class="mpath" d="M497.39 361.8l-112-48a24 24 0 00-28 6.9l-49.6 60.6A370.66 370.66 0 01130.6 204.11l60.6-49.6a23.94 23.94 0 006.9-28l-48-112A24.16 24.16 0 00122.6.61l-104 24A24 24 0 000 48c0 256.5 207.9 464 464 464a24 24 0 0023.4-18.6l24-104a24.29 24.29 0 00-14.01-27.6z"/></svg><svg viewBox="0 0 266.2 350" id="user" xmlns="http://www.w3.org/2000/svg"><style>.nst0{fill:#cacaca}</style><path class="nst0" d="M133.1 171.17c38.91 0 70.46-38.32 70.46-85.59S193.2 0 133.1 0C72.99 0 62.63 38.31 62.63 85.58c0 47.27 31.55 85.59 70.47 85.59M.01 301.85c-.01-2.88-.02-.81 0 0M266.18 304.1c.04-.79.02-5.47 0 0"/><path class="nst0" d="M266.03 298.39c-1.3-82.34-12.05-105.8-94.35-120.65 0 0-11.58 14.76-38.58 14.76s-38.59-14.76-38.59-14.76c-81.39 14.68-92.8 37.8-94.3 117.98-.12 6.54-.18 6.89-.2 6.13 0 1.42.01 4.06.01 8.65 0 0 19.59 39.5 133.08 39.5 113.48 0 133.08-39.5 133.08-39.5v-6.4c-.02.47-.06-.44-.15-5.71"/></svg><svg viewBox="0 0 266.2 350" id="user-act" xmlns="http://www.w3.org/2000/svg"><style>.ost0{fill:#00b5ab}</style><path class="ost0" d="M133.1 171.17c38.91 0 70.46-38.32 70.46-85.59S193.2 0 133.1 0C72.99 0 62.63 38.31 62.63 85.58c0 47.27 31.55 85.59 70.47 85.59M.01 301.85c-.01-2.88-.02-.81 0 0M266.18 304.1c.04-.79.02-5.47 0 0"/><path class="ost0" d="M266.03 298.39c-1.3-82.34-12.05-105.8-94.35-120.65 0 0-11.58 14.76-38.58 14.76s-38.59-14.76-38.59-14.76c-81.39 14.68-92.8 37.8-94.3 117.98-.12 6.54-.18 6.89-.2 6.13 0 1.42.01 4.06.01 8.65 0 0 19.59 39.5 133.08 39.5 113.48 0 133.08-39.5 133.08-39.5v-6.4c-.02.47-.06-.44-.15-5.71"/></svg><svg viewBox="0 0 128 128" id="viber" xmlns="http://www.w3.org/2000/svg"><g clip-rule="evenodd"><path fill="none" d="M0 0h128v128H0z"/><path d="M71.4 44.764c2.492.531 4.402 1.478 6.034 3.006 2.1 1.983 3.251 4.383 3.757 7.831.342 2.248.202 3.132-.595 3.865-.746.682-2.125.707-2.96.063-.607-.455-.797-.935-.936-2.236-.164-1.731-.468-2.943-.987-4.067-1.113-2.387-3.074-3.625-6.388-4.029-1.556-.19-2.024-.366-2.53-.96-.924-1.099-.569-2.88.708-3.537.481-.24.683-.265 1.746-.202.659.038 1.633.152 2.151.266zm-2.694-9.537c7.679 1.124 13.624 4.686 17.521 10.471 2.189 3.259 3.555 7.086 4.023 11.191.164 1.503.164 4.244-.013 4.699-.165.429-.696 1.01-1.151 1.25-.493.253-1.543.227-2.125-.076-.974-.493-1.265-1.276-1.265-3.398 0-3.271-.848-6.72-2.315-9.398a19.214 19.214 0 00-7.059-7.339c-2.543-1.516-6.3-2.64-9.728-2.918-1.24-.101-1.923-.354-2.391-.897-.721-.821-.797-1.933-.19-2.855.657-1.02 1.669-1.185 4.693-.73zm-29.792-7.793c.443.152 1.126.505 1.518.758 2.403 1.592 9.095 10.143 11.284 14.412 1.252 2.438 1.67 4.244 1.278 5.583-.405 1.44-1.075 2.198-4.074 4.61-1.202.972-2.328 1.97-2.505 2.236-.455.657-.822 1.945-.822 2.855.013 2.109 1.379 5.937 3.175 8.88 1.391 2.286 3.883 5.216 6.35 7.465 2.897 2.653 5.452 4.459 8.337 5.886 3.707 1.844 5.971 2.311 7.628 1.541.417-.19.86-.442.999-.556.126-.114 1.101-1.301 2.163-2.615 2.049-2.577 2.517-2.994 3.922-3.474 1.784-.606 3.605-.442 5.44.493 1.392.72 4.428 2.602 6.388 3.966 2.581 1.806 8.096 6.303 8.843 7.2 1.315 1.617 1.543 3.688.658 5.975-.936 2.412-4.579 6.934-7.122 8.867-2.302 1.743-3.934 2.412-6.085 2.513-1.771.088-2.505-.063-4.769-.998-17.76-7.313-31.941-18.226-43.2-33.22-5.882-7.831-10.361-15.953-13.422-24.378-1.784-4.913-1.872-7.048-.405-9.562.633-1.061 3.327-3.688 5.288-5.153 3.264-2.425 4.769-3.322 5.971-3.575.822-.177 2.252-.038 3.162.291zm28.919-1.364c4.352.543 7.868 1.591 11.727 3.474 3.795 1.857 6.224 3.613 9.437 6.808 3.011 3.019 4.681 5.305 6.452 8.854 2.467 4.951 3.871 10.838 4.111 17.317.089 2.21.025 2.703-.481 3.335-.961 1.225-3.074 1.023-3.795-.354-.228-.455-.291-.846-.367-2.615-.127-2.716-.316-4.471-.696-6.568-1.493-8.223-5.44-14.791-11.74-19.503-5.25-3.941-10.677-5.861-17.786-6.278-2.404-.139-2.821-.227-3.365-.644-1.012-.796-1.063-2.665-.089-3.537.595-.543 1.012-.619 3.074-.556 1.077.039 2.658.166 3.518.267zM64 0c35.346 0 64 28.654 64 64s-28.654 64-64 64S0 99.346 0 64 28.654 0 64 0z" fill="#7F4DA0" fill-rule="evenodd"/></g></svg><svg viewBox="0 0 870 870" id="youtube" xmlns="http://www.w3.org/2000/svg"><g fill="#b00"><path d="M404.5 1.1C261 10.7 130.1 92.4 58.1 217.4 6.5 306.7-11.6 413.1 7.6 514c23.6 124.8 100.2 232.7 209.8 295.9 89.3 51.6 195.7 69.7 296.6 50.5 69.2-13.1 133-42 188-85.3 82.9-65.2 138.8-157.3 158.4-261.1 9.9-51.8 9.9-108.2 0-160-23.6-124.8-100.2-232.7-209.8-295.9-74.2-42.8-160.2-62.7-246.1-57zm-86.6 162.1c6.3 23.3 11.7 42.9 12 43.6.4.6 5.4-16.9 11.1-39 5.7-22.2 10.7-41.8 11.2-43.6l.9-3.2h34.1l-.7 2.7c-.3 1.6-9.4 31.6-20.1 66.8L347 254.6V346h-34v-92.5l-4-15.7c-4-15.7-14.9-49.5-29.9-92.6-4.5-12.8-8.1-23.5-8.1-23.8 0-.2 8-.4 17.8-.4h17.8l11.3 42.2zm130.8 15.9c7.6 2.6 13.8 7.2 18.9 14.1 9.1 12.4 10.9 27.1 10.1 79.3-.6 36.7-1.4 43.2-6.3 53.3-5.8 11.9-18.6 20.7-32.1 22-15.7 1.6-27.2-1.8-36.8-10.9-6.8-6.5-11-14.6-13.1-25.7-2.2-11.7-1.6-95 .8-102.7 5.2-17 18.2-29.1 34.1-31.5 7-1.1 17.9-.2 24.4 2.1zm84.3 66.4c0 56.4.2 68.1 1.4 71 2.9 6.8 10.6 5.5 19.2-3.2l5.4-5.5.2-64.7.3-64.6 15.3-.3 15.2-.3V346h-31V328.7l-5.7 5.5c-10.7 10.2-18.5 13.9-28.9 13.9-10.8 0-16.7-4.2-20.1-14.4-1.5-4.7-1.7-12.3-2.1-79.1-.2-40.6-.1-74.5.2-75.2.4-1.1 3.7-1.4 15.6-1.4h15v67.5zM551 378c41 1.7 71.6 4 81.5 6.1 2.8.6 8.8 2.9 13.5 5.1 6.9 3.3 10 5.6 16.6 12.3 14.8 14.9 19.4 29.6 23.5 75.5 2.9 33.6 2.7 116.5-.6 150-4.1 43.5-8.2 55.9-23.4 71-13.9 13.8-22 16.9-51.1 19.4-49.8 4.4-109.6 6-198.5 5.3-101.9-.9-158-4.2-173.9-10.1-16.5-6.3-30.5-20.1-36.5-36.2-7.6-20.1-11.2-61.1-11.2-126.4 0-54.6 2-84.6 7.2-111.7 2.4-12.6 4.6-18.3 10.6-27.5 7.5-11.5 18-19.7 31-24.5 12.8-4.6 64.3-8.3 137.3-9.7 29.7-.6 150 .4 174 1.4z"/><path d="M425.4 205.9c-1.8 1.1-3.9 3.7-5 6.2-1.8 4.1-1.9 7.7-2.2 47.2-.3 48 .1 52.7 5.8 57.9 6.7 6.2 15.6 4.1 20-4.7l2.5-5v-91l-2.4-4.8c-1.3-2.8-3.5-5.4-5.2-6.2-3.9-2.1-9.8-1.9-13.5.4zM228 450.5V466h35v191h34V466h36v-31H228v15.5zM450 546v111h29v-7.5c0-4.1.3-7.5.6-7.5.4 0 3.7 2.9 7.4 6.4 8.1 7.6 14.9 10.6 24.3 10.6 13.8-.1 21.9-8.3 24.6-25 1.4-8.7 1.4-110.3 0-118.9-3-18.7-14.3-28.2-30.3-25.2-7.6 1.4-12.5 4.1-20.1 11.2l-6.5 6.1V435h-29v111zm51.2-27.7c1 .7 2.9 3.2 4.1 5.7 2.2 4.4 2.2 5.4 2.5 47.2.4 48.4-.1 52.8-6 58.2-2.8 2.5-3.6 2.8-8.5 2.4-3.8-.3-6.6-1.3-9.6-3.4l-4.2-3-.3-50.6-.2-50.7 3.5-2.8c6.4-5.1 13.4-6.2 18.7-3zM597.2 490.1c-11.1 1.9-22 9.2-28.1 18.7-1.7 2.7-4.1 8.4-5.3 12.8-2.1 7.6-2.2 9.6-2.3 51.9 0 31 .4 45.5 1.2 49.1 2.5 10.4 5.4 16.4 10.9 22.4 9.4 10.1 18.7 14 33.3 14 14.7 0 23.4-3.4 31.7-12.2 9.3-9.8 12.4-18.9 12.4-36V600H621.3l-.7 10.6c-1.1 16.5-4.2 21.4-13.8 21.4-6.5 0-10.3-2.3-13.1-8-2-4.1-2.2-6.2-2.5-24.3l-.4-19.7H651v-22.1c0-31.1-2-41.7-10-52.5-9-12-27-18.3-43.8-15.3zm16.8 28.8c5.4 3.9 6.5 7.5 6.8 22.3l.4 13.8H591v-10.5c0-12.7 1.4-19.6 4.7-23.5 4.3-5.1 12.8-6.1 18.3-2.1zM337 560.7c0 39 .5 73.1 1 77.3 2 15.6 8.2 21.4 22 20.8 9.5-.4 16.6-3.8 26-12.5 3.7-3.5 7.1-6.3 7.4-6.3.3 0 .6 3.8.6 8.5v8.5h29V491h-29v127.1l-5.2 5.6c-2.9 3-6.5 6.1-8 6.9-2.9 1.5-8.6 1.8-10.5.6-3.1-1.9-3.3-7-3.3-73.3V491h-30v69.7z"/></g></svg></svg>