<?xml version="1.0" ?><!DOCTYPE svg  PUBLIC '-//W3C//DTD SVG 1.1//EN'  'http://www.w3.org/Graphics/SVG/1.1/DTD/svg11.dtd'><svg viewBox="0 0 870 870" xmlns="http://www.w3.org/2000/svg" xmlns:xlink="http://www.w3.org/1999/xlink"><style>:root>svg{display:none}:root>svg:target{display:block}</style><svg viewBox="0 0 550 550" id="facebook" xmlns="http://www.w3.org/2000/svg"><circle cx="275" cy="275" fill="#3F65A6" r="275"/><path d="M236.1 190.8v40.4h-29.6v49.4h29.6V416h60.8V280.5h40.8s3.8-23.7 5.7-49.6h-46.2v-33.8c0-5 6.6-11.8 13.2-11.8h33.1v-51.4h-45c-63.9.1-62.4 49.5-62.4 56.9z" fill="#FFF"/></svg><svg viewBox="0 0 128 128" id="viber" xmlns="http://www.w3.org/2000/svg"><g clip-rule="evenodd"><path fill="none" d="M0 0h128v128H0z"/><path d="M71.4 44.764c2.492.531 4.402 1.478 6.034 3.006 2.1 1.983 3.251 4.383 3.757 7.831.342 2.248.202 3.132-.595 3.865-.746.682-2.125.707-2.96.063-.607-.455-.797-.935-.936-2.236-.164-1.731-.468-2.943-.987-4.067-1.113-2.387-3.074-3.625-6.388-4.029-1.556-.19-2.024-.366-2.53-.96-.924-1.099-.569-2.88.708-3.537.481-.24.683-.265 1.746-.202.659.038 1.633.152 2.151.266zm-2.694-9.537c7.679 1.124 13.624 4.686 17.521 10.471 2.189 3.259 3.555 7.086 4.023 11.191.164 1.503.164 4.244-.013 4.699-.165.429-.696 1.01-1.151 1.25-.493.253-1.543.227-2.125-.076-.974-.493-1.265-1.276-1.265-3.398 0-3.271-.848-6.72-2.315-9.398a19.214 19.214 0 00-7.059-7.339c-2.543-1.516-6.3-2.64-9.728-2.918-1.24-.101-1.923-.354-2.391-.897-.721-.821-.797-1.933-.19-2.855.657-1.02 1.669-1.185 4.693-.73zm-29.792-7.793c.443.152 1.126.505 1.518.758 2.403 1.592 9.095 10.143 11.284 14.412 1.252 2.438 1.67 4.244 1.278 5.583-.405 1.44-1.075 2.198-4.074 4.61-1.202.972-2.328 1.97-2.505 2.236-.455.657-.822 1.945-.822 2.855.013 2.109 1.379 5.937 3.175 8.88 1.391 2.286 3.883 5.216 6.35 7.465 2.897 2.653 5.452 4.459 8.337 5.886 3.707 1.844 5.971 2.311 7.628 1.541.417-.19.86-.442.999-.556.126-.114 1.101-1.301 2.163-2.615 2.049-2.577 2.517-2.994 3.922-3.474 1.784-.606 3.605-.442 5.44.493 1.392.72 4.428 2.602 6.388 3.966 2.581 1.806 8.096 6.303 8.843 7.2 1.315 1.617 1.543 3.688.658 5.975-.936 2.412-4.579 6.934-7.122 8.867-2.302 1.743-3.934 2.412-6.085 2.513-1.771.088-2.505-.063-4.769-.998-17.76-7.313-31.941-18.226-43.2-33.22-5.882-7.831-10.361-15.953-13.422-24.378-1.784-4.913-1.872-7.048-.405-9.562.633-1.061 3.327-3.688 5.288-5.153 3.264-2.425 4.769-3.322 5.971-3.575.822-.177 2.252-.038 3.162.291zm28.919-1.364c4.352.543 7.868 1.591 11.727 3.474 3.795 1.857 6.224 3.613 9.437 6.808 3.011 3.019 4.681 5.305 6.452 8.854 2.467 4.951 3.871 10.838 4.111 17.317.089 2.21.025 2.703-.481 3.335-.961 1.225-3.074 1.023-3.795-.354-.228-.455-.291-.846-.367-2.615-.127-2.716-.316-4.471-.696-6.568-1.493-8.223-5.44-14.791-11.74-19.503-5.25-3.941-10.677-5.861-17.786-6.278-2.404-.139-2.821-.227-3.365-.644-1.012-.796-1.063-2.665-.089-3.537.595-.543 1.012-.619 3.074-.556 1.077.039 2.658.166 3.518.267zM64 0c35.346 0 64 28.654 64 64s-28.654 64-64 64S0 99.346 0 64 28.654 0 64 0z" fill="#7F4DA0" fill-rule="evenodd"/></g></svg><svg viewBox="0 0 870 870" id="youtube" xmlns="http://www.w3.org/2000/svg"><g fill="#b00"><path d="M404.5 1.1C261 10.7 130.1 92.4 58.1 217.4 6.5 306.7-11.6 413.1 7.6 514c23.6 124.8 100.2 232.7 209.8 295.9 89.3 51.6 195.7 69.7 296.6 50.5 69.2-13.1 133-42 188-85.3 82.9-65.2 138.8-157.3 158.4-261.1 9.9-51.8 9.9-108.2 0-160-23.6-124.8-100.2-232.7-209.8-295.9-74.2-42.8-160.2-62.7-246.1-57zm-86.6 162.1c6.3 23.3 11.7 42.9 12 43.6.4.6 5.4-16.9 11.1-39 5.7-22.2 10.7-41.8 11.2-43.6l.9-3.2h34.1l-.7 2.7c-.3 1.6-9.4 31.6-20.1 66.8L347 254.6V346h-34v-92.5l-4-15.7c-4-15.7-14.9-49.5-29.9-92.6-4.5-12.8-8.1-23.5-8.1-23.8 0-.2 8-.4 17.8-.4h17.8l11.3 42.2zm130.8 15.9c7.6 2.6 13.8 7.2 18.9 14.1 9.1 12.4 10.9 27.1 10.1 79.3-.6 36.7-1.4 43.2-6.3 53.3-5.8 11.9-18.6 20.7-32.1 22-15.7 1.6-27.2-1.8-36.8-10.9-6.8-6.5-11-14.6-13.1-25.7-2.2-11.7-1.6-95 .8-102.7 5.2-17 18.2-29.1 34.1-31.5 7-1.1 17.9-.2 24.4 2.1zm84.3 66.4c0 56.4.2 68.1 1.4 71 2.9 6.8 10.6 5.5 19.2-3.2l5.4-5.5.2-64.7.3-64.6 15.3-.3 15.2-.3V346h-31V328.7l-5.7 5.5c-10.7 10.2-18.5 13.9-28.9 13.9-10.8 0-16.7-4.2-20.1-14.4-1.5-4.7-1.7-12.3-2.1-79.1-.2-40.6-.1-74.5.2-75.2.4-1.1 3.7-1.4 15.6-1.4h15v67.5zM551 378c41 1.7 71.6 4 81.5 6.1 2.8.6 8.8 2.9 13.5 5.1 6.9 3.3 10 5.6 16.6 12.3 14.8 14.9 19.4 29.6 23.5 75.5 2.9 33.6 2.7 116.5-.6 150-4.1 43.5-8.2 55.9-23.4 71-13.9 13.8-22 16.9-51.1 19.4-49.8 4.4-109.6 6-198.5 5.3-101.9-.9-158-4.2-173.9-10.1-16.5-6.3-30.5-20.1-36.5-36.2-7.6-20.1-11.2-61.1-11.2-126.4 0-54.6 2-84.6 7.2-111.7 2.4-12.6 4.6-18.3 10.6-27.5 7.5-11.5 18-19.7 31-24.5 12.8-4.6 64.3-8.3 137.3-9.7 29.7-.6 150 .4 174 1.4z"/><path d="M425.4 205.9c-1.8 1.1-3.9 3.7-5 6.2-1.8 4.1-1.9 7.7-2.2 47.2-.3 48 .1 52.7 5.8 57.9 6.7 6.2 15.6 4.1 20-4.7l2.5-5v-91l-2.4-4.8c-1.3-2.8-3.5-5.4-5.2-6.2-3.9-2.1-9.8-1.9-13.5.4zM228 450.5V466h35v191h34V466h36v-31H228v15.5zM450 546v111h29v-7.5c0-4.1.3-7.5.6-7.5.4 0 3.7 2.9 7.4 6.4 8.1 7.6 14.9 10.6 24.3 10.6 13.8-.1 21.9-8.3 24.6-25 1.4-8.7 1.4-110.3 0-118.9-3-18.7-14.3-28.2-30.3-25.2-7.6 1.4-12.5 4.1-20.1 11.2l-6.5 6.1V435h-29v111zm51.2-27.7c1 .7 2.9 3.2 4.1 5.7 2.2 4.4 2.2 5.4 2.5 47.2.4 48.4-.1 52.8-6 58.2-2.8 2.5-3.6 2.8-8.5 2.4-3.8-.3-6.6-1.3-9.6-3.4l-4.2-3-.3-50.6-.2-50.7 3.5-2.8c6.4-5.1 13.4-6.2 18.7-3zM597.2 490.1c-11.1 1.9-22 9.2-28.1 18.7-1.7 2.7-4.1 8.4-5.3 12.8-2.1 7.6-2.2 9.6-2.3 51.9 0 31 .4 45.5 1.2 49.1 2.5 10.4 5.4 16.4 10.9 22.4 9.4 10.1 18.7 14 33.3 14 14.7 0 23.4-3.4 31.7-12.2 9.3-9.8 12.4-18.9 12.4-36V600H621.3l-.7 10.6c-1.1 16.5-4.2 21.4-13.8 21.4-6.5 0-10.3-2.3-13.1-8-2-4.1-2.2-6.2-2.5-24.3l-.4-19.7H651v-22.1c0-31.1-2-41.7-10-52.5-9-12-27-18.3-43.8-15.3zm16.8 28.8c5.4 3.9 6.5 7.5 6.8 22.3l.4 13.8H591v-10.5c0-12.7 1.4-19.6 4.7-23.5 4.3-5.1 12.8-6.1 18.3-2.1zM337 560.7c0 39 .5 73.1 1 77.3 2 15.6 8.2 21.4 22 20.8 9.5-.4 16.6-3.8 26-12.5 3.7-3.5 7.1-6.3 7.4-6.3.3 0 .6 3.8.6 8.5v8.5h29V491h-29v127.1l-5.2 5.6c-2.9 3-6.5 6.1-8 6.9-2.9 1.5-8.6 1.8-10.5.6-3.1-1.9-3.3-7-3.3-73.3V491h-30v69.7z"/></g></svg></svg>